<svg width="512" height="512" viewBox="0 0 512 512" xmlns="http://www.w3.org/2000/svg">
  <defs>
    <linearGradient id="forgeRing" x1="0" y1="0" x2="1" y2="1">
      <stop offset="0" stop-color="#FFB020"/>
      <stop offset="1" stop-color="#E63B2E"/>
    </linearGradient>
    <linearGradient id="forgeFlame" x1="0" y1="0" x2="0" y2="1">
      <stop offset="0" stop-color="#FFB020"/>
      <stop offset="0.55" stop-color="#FF7A1A"/>
      <stop offset="1" stop-color="#E63B2E"/>
    </linearGradient>
  </defs>
  <rect width="512" height="512" fill="none"/>
  <circle cx="256" cy="256" r="208" fill="none" stroke="url(#forgeRing)" stroke-width="24"/>
  <path d="M256 104 C220 156 224 196 256 230 C284 200 308 170 312 130 C336 174 360 216 344 264 C330 300 296 330 256 346 C216 330 182 300 168 264 C152 216 176 156 256 104 Z" fill="url(#forgeFlame)"/>
  <rect x="186" y="304" width="140" height="38" rx="6" fill="#1C1E22"/>
  <path d="M156 334 L356 334 L372 380 L140 380 Z" fill="#0B0B0C"/>
  <rect x="210" y="286" width="92" height="16" rx="4" fill="#2A2E33"/>
</svg>
