<?xml version="1.0" encoding="UTF-8"?>
<svg xmlns="http://www.w3.org/2000/svg" width="512" height="512" viewBox="0 0 512 512">
<defs><radialGradient id="bg" cx="50%" cy="40%" r="75%"><stop offset="0" stop-color="#00C3FF" stop-opacity=".35"/><stop offset="1" stop-color="#050610"/></radialGradient><filter id="glow"><feGaussianBlur stdDeviation="4" result="blur"/><feMerge><feMergeNode in="blur"/><feMergeNode in="SourceGraphic"/></feMerge></filter></defs>
<rect width="512" height="512" rx="64" fill="url(#bg)"/>
<g filter="url(#glow)"><path d="M256 28 L420 256 L256 484 L92 256 Z" fill="#1A6FFF" stroke="#E53935" stroke-width="15"/><path d="M256 74 L370 256 L256 440 L142 256 Z" fill="#050610" opacity=".82" stroke="#00C3FF" stroke-width="8"/><path d="M86 380 C152 250 194 210 256 82 C318 210 360 250 426 380" stroke="#E53935" stroke-width="12" fill="none"/><path d="M100 132 C176 70 226 126 256 230 C286 126 336 70 412 132" stroke="#00C3FF" stroke-width="12" fill="none"/><rect x="190" y="130" width="132" height="252" rx="16" fill="#1A6FFF" stroke="#B77939" stroke-width="10"/><rect x="210" y="160" width="92" height="46" rx="6" fill="#050610" stroke="#B77939" stroke-width="6"/><path d="M214 244 H232 M248 244 H266 M282 244 H300 M214 284 H232 M248 284 H266 M282 284 H300 M214 324 H232 M248 324 H266 M282 324 H300" stroke="#00C3FF" stroke-width="12"/></g>
</svg>
